# Blender v2.80 (sub 75) OBJ File: 'dragHandle.blend'
# www.blender.org
mtllib Arrow.mtl
o Arrow_Cylinder.001
v 0.000000 0.000000 -0.080000
v 0.015607 0.000000 -0.078463
v 0.030615 0.000000 -0.073910
v 0.044446 0.000000 -0.066518
v 0.056569 0.000000 -0.056569
v 0.066518 0.000000 -0.044446
v 0.073910 0.000000 -0.030615
v 0.078463 0.000000 -0.015607
v 0.080000 0.000000 -0.000000
v 0.078463 0.000000 0.015607
v 0.073910 0.000000 0.030615
v 0.066518 0.000000 0.044446
v 0.056569 0.000000 0.056569
v 0.044446 0.000000 0.066518
v 0.030615 0.000000 0.073910
v 0.015607 0.000000 0.078463
v -0.000000 0.000000 0.080000
v -0.015607 0.000000 0.078463
v -0.030615 0.000000 0.073910
v -0.044446 0.000000 0.066518
v -0.056569 0.000000 0.056569
v -0.066518 0.000000 0.044446
v -0.073910 0.000000 0.030615
v 0.000000 0.150000 0.000000
v -0.078463 0.000000 0.015607
v -0.080000 0.000000 -0.000000
v -0.078463 0.000000 -0.015607
v -0.073910 0.000000 -0.030615
v -0.066518 0.000000 -0.044446
v -0.056568 0.000000 -0.056569
v -0.044446 0.000000 -0.066518
v -0.030615 0.000000 -0.073910
v -0.015607 0.000000 -0.078463
v 0.000000 -0.200000 -0.050000
v 0.000000 0.000000 -0.050000
v 0.009755 -0.200000 -0.049039
v 0.009755 0.000000 -0.049039
v 0.019134 -0.200000 -0.046194
v 0.019134 0.000000 -0.046194
v 0.027779 -0.200000 -0.041573
v 0.027779 0.000000 -0.041573
v 0.035355 -0.200000 -0.035355
v 0.035355 0.000000 -0.035355
v 0.041573 -0.200000 -0.027779
v 0.041573 0.000000 -0.027779
v 0.046194 -0.200000 -0.019134
v 0.046194 0.000000 -0.019134
v 0.049039 -0.200000 -0.009755
v 0.049039 0.000000 -0.009755
v 0.050000 -0.200000 -0.000000
v 0.050000 0.000000 -0.000000
v 0.049039 -0.200000 0.009755
v 0.049039 0.000000 0.009755
v 0.046194 -0.200000 0.019134
v 0.046194 0.000000 0.019134
v 0.041573 -0.200000 0.027779
v 0.041573 0.000000 0.027779
v 0.035355 -0.200000 0.035355
v 0.035355 0.000000 0.035355
v 0.027779 -0.200000 0.041573
v 0.027779 0.000000 0.041573
v 0.019134 -0.200000 0.046194
v 0.019134 0.000000 0.046194
v 0.009755 -0.200000 0.049039
v 0.009755 0.000000 0.049039
v -0.000000 -0.200000 0.050000
v -0.000000 0.000000 0.050000
v -0.009755 -0.200000 0.049039
v -0.009755 0.000000 0.049039
v -0.019134 -0.200000 0.046194
v -0.019134 0.000000 0.046194
v -0.027779 -0.200000 0.041573
v -0.027779 0.000000 0.041573
v -0.035355 -0.200000 0.035355
v -0.035355 0.000000 0.035355
v -0.041574 -0.200000 0.027778
v -0.041574 0.000000 0.027778
v -0.046194 -0.200000 0.019134
v -0.046194 0.000000 0.019134
v -0.049039 -0.200000 0.009754
v -0.049039 0.000000 0.009754
v -0.050000 -0.200000 -0.000000
v -0.050000 0.000000 -0.000000
v -0.049039 -0.200000 -0.009755
v -0.049039 0.000000 -0.009755
v -0.046194 -0.200000 -0.019134
v -0.046194 0.000000 -0.019134
v -0.041573 -0.200000 -0.027779
v -0.041573 0.000000 -0.027779
v -0.035355 -0.200000 -0.035355
v -0.035355 0.000000 -0.035355
v -0.027778 -0.200000 -0.041574
v -0.027778 0.000000 -0.041574
v -0.019134 -0.200000 -0.046194
v -0.019134 0.000000 -0.046194
v -0.009754 -0.200000 -0.049039
v -0.009754 0.000000 -0.049039
v 0.005026 0.000000 -0.047584
v 0.046632 0.000000 0.014685
v -0.007033 0.000000 -0.035355
v 0.008811 0.000000 -0.041918
v 0.000000 0.000000 -0.000000
v 0.046194 0.000000 0.014029
v 0.040631 0.000000 0.005703
v 0.003651 0.000000 -0.049640
v 0.047259 0.000000 0.015623
vt 0.250000 0.490000
vt 0.250000 0.250000
vt 0.296822 0.485388
vt 0.341844 0.471731
vt 0.383337 0.449553
vt 0.419706 0.419706
vt 0.449553 0.383337
vt 0.471731 0.341844
vt 0.485388 0.296822
vt 0.490000 0.250000
vt 0.485388 0.203178
vt 0.471731 0.158156
vt 0.449553 0.116663
vt 0.419706 0.080294
vt 0.383337 0.050447
vt 0.341844 0.028269
vt 0.296822 0.014612
vt 0.250000 0.010000
vt 0.203178 0.014612
vt 0.158156 0.028269
vt 0.116663 0.050447
vt 0.080294 0.080294
vt 0.050447 0.116663
vt 0.028269 0.158156
vt 0.014612 0.203179
vt 0.010000 0.250000
vt 0.014612 0.296822
vt 0.028269 0.341844
vt 0.050447 0.383337
vt 0.080295 0.419706
vt 0.116663 0.449553
vt 0.158156 0.471731
vt 0.203179 0.485389
vt 0.750000 0.490000
vt 0.796822 0.485388
vt 0.841844 0.471731
vt 0.883337 0.449553
vt 0.919706 0.419706
vt 0.949553 0.383337
vt 0.971731 0.341844
vt 0.985388 0.296822
vt 0.990000 0.250000
vt 0.900000 0.250000
vt 0.897118 0.279263
vt 0.888582 0.307403
vt 0.874720 0.333335
vt 0.856066 0.356066
vt 0.833336 0.374721
vt 0.807403 0.388582
vt 0.779264 0.397118
vt 0.750000 0.400000
vt 0.720737 0.397118
vt 0.692598 0.388582
vt 0.666665 0.374721
vt 0.643934 0.356066
vt 0.625280 0.333336
vt 0.611418 0.307403
vt 0.602882 0.279264
vt 0.600000 0.250000
vt 0.510000 0.250000
vt 0.514612 0.296822
vt 0.528269 0.341844
vt 0.550447 0.383337
vt 0.580295 0.419706
vt 0.616663 0.449553
vt 0.658156 0.471731
vt 0.703179 0.485389
vt 1.000000 0.500000
vt 1.000000 1.000000
vt 0.968750 1.000000
vt 0.968750 0.500000
vt 0.937500 1.000000
vt 0.937500 0.500000
vt 0.906250 1.000000
vt 0.906250 0.500000
vt 0.875000 1.000000
vt 0.875000 0.500000
vt 0.843750 1.000000
vt 0.843750 0.500000
vt 0.812500 1.000000
vt 0.812500 0.500000
vt 0.781250 1.000000
vt 0.781250 0.500000
vt 0.750000 1.000000
vt 0.750000 0.500000
vt 0.718750 1.000000
vt 0.718750 0.500000
vt 0.687500 1.000000
vt 0.687500 0.500000
vt 0.656250 1.000000
vt 0.656250 0.500000
vt 0.625000 1.000000
vt 0.625000 0.500000
vt 0.593750 1.000000
vt 0.593750 0.500000
vt 0.562500 1.000000
vt 0.562500 0.500000
vt 0.531250 1.000000
vt 0.531250 0.500000
vt 0.500000 1.000000
vt 0.500000 0.500000
vt 0.468750 1.000000
vt 0.468750 0.500000
vt 0.437500 1.000000
vt 0.437500 0.500000
vt 0.406250 1.000000
vt 0.406250 0.500000
vt 0.375000 1.000000
vt 0.375000 0.500000
vt 0.343750 1.000000
vt 0.343750 0.500000
vt 0.312500 1.000000
vt 0.312500 0.500000
vt 0.281250 1.000000
vt 0.281250 0.500000
vt 0.250000 1.000000
vt 0.250000 0.500000
vt 0.218750 1.000000
vt 0.218750 0.500000
vt 0.187500 1.000000
vt 0.187500 0.500000
vt 0.156250 1.000000
vt 0.156250 0.500000
vt 0.125000 1.000000
vt 0.125000 0.500000
vt 0.093750 1.000000
vt 0.093750 0.500000
vt 0.062500 1.000000
vt 0.062500 0.500000
vt 0.296822 0.485388
vt 0.267527 0.488274
vt 0.250000 0.490000
vt 0.274124 0.478401
vt 0.341844 0.471731
vt 0.031250 1.000000
vt 0.031250 0.500000
vt 0.000000 1.000000
vt 0.000000 0.500000
vt 0.750000 0.490000
vt 0.796822 0.485388
vt 0.841844 0.471731
vt 0.883337 0.449553
vt 0.919706 0.419706
vt 0.949553 0.383337
vt 0.971731 0.341844
vt 0.985388 0.296822
vt 0.990000 0.250000
vt 0.985388 0.203178
vt 0.971731 0.158156
vt 0.949553 0.116663
vt 0.919706 0.080294
vt 0.883337 0.050447
vt 0.841844 0.028269
vt 0.796822 0.014612
vt 0.750000 0.010000
vt 0.703178 0.014612
vt 0.658156 0.028269
vt 0.616663 0.050447
vt 0.580294 0.080294
vt 0.550447 0.116663
vt 0.528269 0.158156
vt 0.514611 0.203179
vt 0.510000 0.250000
vt 0.514612 0.296822
vt 0.528269 0.341844
vt 0.550447 0.383337
vt 0.580295 0.419706
vt 0.616663 0.449553
vt 0.658156 0.471731
vt 0.703179 0.485389
vt 0.699198 1.000000
vt 0.602882 0.220737
vt 0.611418 0.192598
vt 0.625279 0.166665
vt 0.643934 0.143934
vt 0.666664 0.125280
vt 0.692597 0.111418
vt 0.720736 0.102882
vt 0.750000 0.100000
vt 0.779263 0.102882
vt 0.807402 0.111418
vt 0.833335 0.125280
vt 0.856066 0.143934
vt 0.874720 0.166665
vt 0.888582 0.192598
vt 0.897118 0.220736
vt 0.985388 0.203178
vt 0.971731 0.158156
vt 0.949553 0.116663
vt 0.919706 0.080294
vt 0.883337 0.050447
vt 0.841844 0.028269
vt 0.796822 0.014612
vt 0.750000 0.010000
vt 0.703178 0.014612
vt 0.658156 0.028269
vt 0.616663 0.050447
vt 0.580294 0.080294
vt 0.550447 0.116663
vt 0.528269 0.158156
vt 0.514611 0.203179
vt 0.988302 1.000000
vt 0.203179 0.485389
vt 0.158156 0.471731
vt 0.116663 0.449553
vt 0.080295 0.419706
vt 0.050447 0.383337
vt 0.028269 0.341844
vt 0.014612 0.296822
vt 0.010000 0.250000
vt 0.014612 0.203179
vt 0.028269 0.158156
vt 0.050447 0.116663
vt 0.080294 0.080294
vt 0.116663 0.050447
vt 0.158156 0.028269
vt 0.341844 0.028269
vt 0.383337 0.050447
vt 0.419706 0.080294
vt 0.449553 0.116663
vt 0.471731 0.158156
vt 0.476843 0.175009
vt 0.485388 0.203178
vt 0.490000 0.250000
vt 0.485388 0.296822
vt 0.471731 0.341844
vt 0.449553 0.383337
vt 0.419706 0.419706
vt 0.383337 0.449553
vt 0.250000 0.010000
vt 0.296822 0.014612
vt 0.203178 0.014612
vn 0.0866 0.4688 -0.8790
vn 0.2564 0.4688 -0.8453
vn 0.4164 0.4688 -0.7790
vn 0.5604 0.4688 -0.6828
vn 0.6828 0.4688 -0.5604
vn 0.7790 0.4688 -0.4164
vn 0.8453 0.4688 -0.2564
vn 0.8790 0.4688 -0.0866
vn 0.8790 0.4688 0.0866
vn 0.8453 0.4688 0.2564
vn 0.7790 0.4688 0.4164
vn 0.6828 0.4688 0.5604
vn 0.5604 0.4688 0.6828
vn 0.4164 0.4688 0.7790
vn 0.2564 0.4688 0.8453
vn 0.0866 0.4688 0.8790
vn -0.0866 0.4688 0.8790
vn -0.2564 0.4688 0.8453
vn -0.4164 0.4688 0.7790
vn -0.5604 0.4688 0.6828
vn -0.6828 0.4688 0.5604
vn -0.7790 0.4688 0.4164
vn -0.8453 0.4688 0.2564
vn -0.8790 0.4688 0.0866
vn -0.8790 0.4688 -0.0866
vn -0.8453 0.4688 -0.2564
vn -0.7790 0.4688 -0.4164
vn -0.6828 0.4688 -0.5604
vn -0.5604 0.4688 -0.6828
vn -0.4164 0.4688 -0.7790
vn -0.2564 0.4688 -0.8453
vn -0.0866 0.4688 -0.8790
vn 0.0000 -1.0000 -0.0000
vn 0.0980 0.0000 -0.9952
vn 0.2903 0.0000 -0.9569
vn 0.4714 0.0000 -0.8819
vn 0.6344 0.0000 -0.7730
vn 0.7730 0.0000 -0.6344
vn 0.8819 0.0000 -0.4714
vn 0.9569 0.0000 -0.2903
vn 0.9952 0.0000 -0.0980
vn 0.9952 0.0000 0.0980
vn 0.9569 0.0000 0.2903
vn 0.8819 0.0000 0.4714
vn 0.7730 0.0000 0.6344
vn 0.6344 0.0000 0.7730
vn 0.4714 0.0000 0.8819
vn 0.2903 0.0000 0.9569
vn 0.0980 0.0000 0.9952
vn -0.0980 0.0000 0.9952
vn -0.2903 0.0000 0.9569
vn -0.4714 0.0000 0.8819
vn -0.6344 0.0000 0.7730
vn -0.7730 0.0000 0.6344
vn -0.8819 0.0000 0.4714
vn -0.9569 0.0000 0.2903
vn -0.9952 0.0000 0.0980
vn -0.9952 0.0000 -0.0980
vn -0.9569 0.0000 -0.2903
vn -0.8819 0.0000 -0.4714
vn -0.7730 0.0000 -0.6344
vn -0.6344 0.0000 -0.7730
vn -0.4714 0.0000 -0.8819
vn 0.0000 1.0000 -0.0000
vn -0.2903 0.0000 -0.9569
vn -0.0980 0.0000 -0.9952
vn 0.7483 -0.6233 0.2270
vn 0.0856 0.4879 -0.8687
usemtl None
s off
f 1/1/1 24/2/1 2/3/1
f 2/3/2 24/2/2 3/4/2
f 3/4/3 24/2/3 4/5/3
f 4/5/4 24/2/4 5/6/4
f 5/6/5 24/2/5 6/7/5
f 6/7/6 24/2/6 7/8/6
f 7/8/7 24/2/7 8/9/7
f 8/9/8 24/2/8 9/10/8
f 9/10/9 24/2/9 10/11/9
f 10/11/10 24/2/10 11/12/10
f 11/12/11 24/2/11 12/13/11
f 12/13/12 24/2/12 13/14/12
f 13/14/13 24/2/13 14/15/13
f 14/15/14 24/2/14 15/16/14
f 15/16/15 24/2/15 16/17/15
f 16/17/16 24/2/16 17/18/16
f 17/18/17 24/2/17 18/19/17
f 18/19/18 24/2/18 19/20/18
f 19/20/19 24/2/19 20/21/19
f 20/21/20 24/2/20 21/22/20
f 21/22/21 24/2/21 22/23/21
f 22/23/22 24/2/22 23/24/22
f 23/24/23 24/2/23 25/25/23
f 25/25/24 24/2/24 26/26/24
f 26/26/25 24/2/25 27/27/25
f 27/27/26 24/2/26 28/28/26
f 28/28/27 24/2/27 29/29/27
f 29/29/28 24/2/28 30/30/28
f 30/30/29 24/2/29 31/31/29
f 31/31/30 24/2/30 32/32/30
f 32/32/31 24/2/31 33/33/31
f 33/33/32 24/2/32 1/1/32
f 1/34/33 2/35/33 3/36/33 4/37/33 5/38/33 6/39/33 7/40/33 8/41/33 9/42/33 51/43/33 49/44/33 47/45/33 45/46/33 43/47/33 41/48/33 39/49/33 37/50/33 35/51/33 97/52/33 95/53/33 93/54/33 91/55/33 89/56/33 87/57/33 85/58/33 83/59/33 26/60/33 27/61/33 28/62/33 29/63/33 30/64/33 31/65/33 32/66/33 33/67/33
f 34/68/34 35/69/34 37/70/34 36/71/34
f 36/71/35 37/70/35 39/72/35 38/73/35
f 38/73/36 39/72/36 41/74/36 40/75/36
f 40/75/37 41/74/37 43/76/37 42/77/37
f 42/77/38 43/76/38 45/78/38 44/79/38
f 44/79/39 45/78/39 47/80/39 46/81/39
f 46/81/40 47/80/40 49/82/40 48/83/40
f 48/83/41 49/82/41 51/84/41 50/85/41
f 50/85/42 51/84/42 53/86/42 52/87/42
f 52/87/43 53/86/43 55/88/43 54/89/43
f 54/89/44 55/88/44 57/90/44 56/91/44
f 56/91/45 57/90/45 59/92/45 58/93/45
f 58/93/46 59/92/46 61/94/46 60/95/46
f 60/95/47 61/94/47 63/96/47 62/97/47
f 62/97/48 63/96/48 65/98/48 64/99/48
f 64/99/49 65/98/49 67/100/49 66/101/49
f 66/101/50 67/100/50 69/102/50 68/103/50
f 68/103/51 69/102/51 71/104/51 70/105/51
f 70/105/52 71/104/52 73/106/52 72/107/52
f 72/107/53 73/106/53 75/108/53 74/109/53
f 74/109/54 75/108/54 77/110/54 76/111/54
f 76/111/55 77/110/55 79/112/55 78/113/55
f 78/113/56 79/112/56 81/114/56 80/115/56
f 80/115/57 81/114/57 83/116/57 82/117/57
f 82/117/58 83/116/58 85/118/58 84/119/58
f 84/119/59 85/118/59 87/120/59 86/121/59
f 86/121/60 87/120/60 89/122/60 88/123/60
f 88/123/61 89/122/61 91/124/61 90/125/61
f 90/125/62 91/124/62 93/126/62 92/127/62
f 92/127/63 93/126/63 95/128/63 94/129/63
f 37/130/64 105/131/64 35/132/64 98/133/64 39/134/64
f 94/129/65 95/128/65 97/135/65 96/136/65
f 96/136/66 97/135/66 35/137/66 34/138/66
f 34/139/33 36/140/33 38/141/33 40/142/33 42/143/33 44/144/33 46/145/33 48/146/33 50/147/33 52/148/33 54/149/33 56/150/33 58/151/33 60/152/33 62/153/33 64/154/33 66/155/33 68/156/33 70/157/33 72/158/33 74/159/33 76/160/33 78/161/33 80/162/33 82/163/33 84/164/33 86/165/33 88/166/33 90/167/33 92/168/33 94/169/33 96/170/33
f 55/88/67 53/86/67 106/171/67
f 26/60/33 83/59/33 81/172/33 79/173/33 77/174/33 75/175/33 73/176/33 71/177/33 69/178/33 67/179/33 65/180/33 63/181/33 61/182/33 59/183/33 57/184/33 55/185/33 53/186/33 51/43/33 9/42/33 10/187/33 11/188/33 12/189/33 13/190/33 14/191/33 15/192/33 16/193/33 17/194/33 18/195/33 19/196/33 20/197/33 21/198/33 22/199/33 23/200/33 25/201/33
f 37/70/68 35/69/68 105/202/68
f 98/133/64 35/132/64 97/203/64 95/204/64
f 98/133/64 95/204/64 93/205/64 91/206/64 89/207/64 87/208/64 85/209/64 83/210/64 81/211/64 79/212/64 77/213/64 75/214/64 73/215/64 71/216/64 63/217/64 61/218/64 59/219/64 57/220/64 55/221/64 106/222/64 53/223/64 51/224/64 49/225/64 47/226/64 45/227/64 43/228/64 41/229/64 39/134/64
f 63/217/64 71/216/64 67/230/64 65/231/64
f 67/230/64 71/216/64 69/232/64
l 55 99
l 55 103
l 39 101
l 39 104
l 71 102
